<mxfile host="app.diagrams.net" modified="2022-03-29T09:28:46.849Z" agent="5.0 (Windows NT 10.0; Win64; x64) AppleWebKit/537.36 (KHTML, like Gecko) Chrome/99.0.4844.84 Safari/537.36" etag="d8Qnmz-6pFsCIk2C-BgC" version="17.1.3" type="github">
  <diagram id="lR8Z5qvyDBxMEgOfz33u" name="Page-1">
    <mxGraphModel dx="1673" dy="896" grid="1" gridSize="10" guides="1" tooltips="1" connect="1" arrows="1" fold="1" page="1" pageScale="1" pageWidth="827" pageHeight="1169" math="0" shadow="0">
      <root>
        <mxCell id="0" />
        <mxCell id="1" parent="0" />
        <mxCell id="CUCXGVHGo1I-hrDsCh0i-53" value="&lt;table border=&quot;1&quot; width=&quot;100%&quot; cellpadding=&quot;4&quot; style=&quot;width: 100% ; height: 100% ; border-collapse: collapse&quot;&gt;&lt;tbody&gt;&lt;tr style=&quot;background-color: #a7c942 ; color: #ffffff ; border: 1px solid #98bf21&quot;&gt;&lt;th&gt;VLAN Tagging&lt;/th&gt;&lt;th&gt;VLAN ID&lt;/th&gt;&lt;th&gt;Physical Switch Port&lt;/th&gt;&lt;td&gt;Physical NIC&lt;/td&gt;&lt;td&gt;Tag by&lt;/td&gt;&lt;td&gt;Port Group&lt;/td&gt;&lt;/tr&gt;&lt;tr style=&quot;border: 1px solid #98bf21&quot;&gt;&lt;td&gt;VST&lt;/td&gt;&lt;td&gt;1-4094&lt;/td&gt;&lt;td&gt;Trunk Port&lt;/td&gt;&lt;td&gt;1&lt;/td&gt;&lt;td&gt;vSwitch&lt;/td&gt;&lt;td&gt;1&lt;/td&gt;&lt;/tr&gt;&lt;tr style=&quot;background-color: #eaf2d3 ; border: 1px solid #98bf21&quot;&gt;&lt;td&gt;EST&lt;/td&gt;&lt;td&gt;0 or None&lt;/td&gt;&lt;td&gt;Access Port&lt;/td&gt;&lt;td&gt;VLAN count on ESXI&lt;/td&gt;&lt;td&gt;Physical Switch&lt;/td&gt;&lt;td&gt;VLAN count on ESXI&lt;br&gt;&lt;/td&gt;&lt;/tr&gt;&lt;tr style=&quot;border: 1px solid #98bf21&quot;&gt;&lt;td&gt;VGT&lt;/td&gt;&lt;td&gt;4095&lt;/td&gt;&lt;td&gt;Trunk Port&lt;/td&gt;&lt;td&gt;1&lt;/td&gt;&lt;td&gt;VM&lt;/td&gt;&lt;td&gt;1&lt;/td&gt;&lt;/tr&gt;&lt;/tbody&gt;&lt;/table&gt;" style="text;html=1;strokeColor=#c0c0c0;fillColor=#ffffff;overflow=fill;rounded=0;align=center;" vertex="1" parent="1">
          <mxGeometry x="80" y="40" width="690" height="170" as="geometry" />
        </mxCell>
        <mxCell id="CUCXGVHGo1I-hrDsCh0i-55" value="Physical Switch" style="html=1;verticalLabelPosition=bottom;verticalAlign=top;outlineConnect=0;shadow=0;dashed=0;shape=mxgraph.rack.hpe_aruba.switches.j9775a_2530_48g_switch;" vertex="1" parent="1">
          <mxGeometry x="125" y="490" width="550" height="80" as="geometry" />
        </mxCell>
        <mxCell id="CUCXGVHGo1I-hrDsCh0i-61" value="" style="strokeColor=#666666;html=1;labelPosition=right;align=left;spacingLeft=15;shadow=0;dashed=0;outlineConnect=0;shape=mxgraph.rack.dell.poweredge_r440;" vertex="1" parent="1">
          <mxGeometry x="100" y="280" width="600" height="140" as="geometry" />
        </mxCell>
        <mxCell id="CUCXGVHGo1I-hrDsCh0i-62" value="vmnic0" style="sketch=0;pointerEvents=1;shadow=0;dashed=0;html=1;strokeColor=none;fillColor=#505050;labelPosition=center;verticalLabelPosition=bottom;verticalAlign=top;outlineConnect=0;align=center;shape=mxgraph.office.devices.nic;direction=east;" vertex="1" parent="1">
          <mxGeometry x="170" y="382" width="57" height="38" as="geometry" />
        </mxCell>
        <mxCell id="CUCXGVHGo1I-hrDsCh0i-63" value="Text" style="text;html=1;align=center;verticalAlign=middle;resizable=0;points=[];autosize=1;strokeColor=none;fillColor=none;" vertex="1" parent="1">
          <mxGeometry x="80" y="400" width="40" height="20" as="geometry" />
        </mxCell>
        <mxCell id="CUCXGVHGo1I-hrDsCh0i-64" value="vmnic1" style="sketch=0;pointerEvents=1;shadow=0;dashed=0;html=1;strokeColor=none;fillColor=#505050;labelPosition=center;verticalLabelPosition=bottom;verticalAlign=top;outlineConnect=0;align=center;shape=mxgraph.office.devices.nic;direction=east;" vertex="1" parent="1">
          <mxGeometry x="270" y="382" width="57" height="38" as="geometry" />
        </mxCell>
        <mxCell id="CUCXGVHGo1I-hrDsCh0i-67" value="" style="edgeStyle=orthogonalEdgeStyle;rounded=0;orthogonalLoop=1;jettySize=auto;html=1;" edge="1" parent="1" source="CUCXGVHGo1I-hrDsCh0i-65" target="CUCXGVHGo1I-hrDsCh0i-62">
          <mxGeometry relative="1" as="geometry" />
        </mxCell>
        <mxCell id="CUCXGVHGo1I-hrDsCh0i-65" value="" style="rounded=0;whiteSpace=wrap;html=1;fillColor=#647687;fontColor=#ffffff;strokeColor=none;" vertex="1" parent="1">
          <mxGeometry x="182" y="514" width="16" height="13" as="geometry" />
        </mxCell>
        <mxCell id="CUCXGVHGo1I-hrDsCh0i-68" value="" style="edgeStyle=orthogonalEdgeStyle;rounded=0;orthogonalLoop=1;jettySize=auto;html=1;exitX=0.5;exitY=0;exitDx=0;exitDy=0;" edge="1" parent="1" source="CUCXGVHGo1I-hrDsCh0i-66" target="CUCXGVHGo1I-hrDsCh0i-64">
          <mxGeometry relative="1" as="geometry" />
        </mxCell>
        <mxCell id="CUCXGVHGo1I-hrDsCh0i-66" value="" style="rounded=0;whiteSpace=wrap;html=1;fillColor=#647687;fontColor=#ffffff;strokeColor=none;" vertex="1" parent="1">
          <mxGeometry x="199" y="514" width="16" height="13" as="geometry" />
        </mxCell>
      </root>
    </mxGraphModel>
  </diagram>
</mxfile>
